<svg xmlns="http://www.w3.org/2000/svg" width="820" height="470" viewBox="0 0 820 470">
<rect width="100%" height="100%" fill="white"/>
<text x="410.0" y="28" text-anchor="middle" font-family="sans-serif" font-size="20">Dynamic paired error CDF (RTK is not surveyed truth)</text>
<line x1="75.0" y1="55" x2="75.0" y2="405" stroke="#e5e7eb"/>
<text x="75.0" y="427" text-anchor="middle" font-family="sans-serif" font-size="12">0.00</text>
<line x1="75" y1="405.0" x2="795" y2="405.0" stroke="#e5e7eb"/>
<text x="67" y="409.0" text-anchor="end" font-family="sans-serif" font-size="12">0</text>
<line x1="219.0" y1="55" x2="219.0" y2="405" stroke="#e5e7eb"/>
<text x="219.0" y="427" text-anchor="middle" font-family="sans-serif" font-size="12">0.33</text>
<line x1="75" y1="335.0" x2="795" y2="335.0" stroke="#e5e7eb"/>
<text x="67" y="339.0" text-anchor="end" font-family="sans-serif" font-size="12">20</text>
<line x1="363.0" y1="55" x2="363.0" y2="405" stroke="#e5e7eb"/>
<text x="363.0" y="427" text-anchor="middle" font-family="sans-serif" font-size="12">0.67</text>
<line x1="75" y1="265.0" x2="795" y2="265.0" stroke="#e5e7eb"/>
<text x="67" y="269.0" text-anchor="end" font-family="sans-serif" font-size="12">40</text>
<line x1="507.0" y1="55" x2="507.0" y2="405" stroke="#e5e7eb"/>
<text x="507.0" y="427" text-anchor="middle" font-family="sans-serif" font-size="12">1.00</text>
<line x1="75" y1="195.0" x2="795" y2="195.0" stroke="#e5e7eb"/>
<text x="67" y="199.0" text-anchor="end" font-family="sans-serif" font-size="12">60</text>
<line x1="651.0" y1="55" x2="651.0" y2="405" stroke="#e5e7eb"/>
<text x="651.0" y="427" text-anchor="middle" font-family="sans-serif" font-size="12">1.33</text>
<line x1="75" y1="125.0" x2="795" y2="125.0" stroke="#e5e7eb"/>
<text x="67" y="129.0" text-anchor="end" font-family="sans-serif" font-size="12">80</text>
<line x1="795.0" y1="55" x2="795.0" y2="405" stroke="#e5e7eb"/>
<text x="795.0" y="427" text-anchor="middle" font-family="sans-serif" font-size="12">1.67</text>
<line x1="75" y1="55.0" x2="795" y2="55.0" stroke="#e5e7eb"/>
<text x="67" y="59.0" text-anchor="end" font-family="sans-serif" font-size="12">100</text>
<line x1="75" y1="55" x2="75" y2="405" stroke="#111827"/>
<line x1="75" y1="405" x2="795" y2="405" stroke="#111827"/>
<polyline points="93.2,405.0 99.1,401.4 101.0,397.8 103.9,394.2 105.5,390.6 106.7,387.0 109.0,383.4 114.5,379.7 115.9,376.1 117.2,372.5 120.4,368.9 121.6,365.3 122.2,361.7 124.7,358.1 125.7,354.5 126.6,350.9 128.3,347.3 133.4,343.7 133.9,340.1 134.7,336.4 136.1,332.8 141.5,329.2 142.8,325.6 157.6,322.0 158.0,318.4 159.9,314.8 162.1,311.2 162.3,307.6 163.8,304.0 166.0,300.4 166.9,296.8 166.9,293.1 167.0,289.5 167.3,285.9 168.4,282.3 169.5,278.7 170.5,275.1 171.6,271.5 172.1,267.9 172.5,264.3 172.8,260.7 173.3,257.1 173.5,253.5 173.6,249.8 173.7,246.2 175.4,242.6 175.9,239.0 175.9,235.4 176.1,231.8 176.6,228.2 176.7,224.6 177.6,221.0 177.8,217.4 178.8,213.8 181.3,210.2 181.8,206.5 182.9,202.9 183.0,199.3 184.2,195.7 193.7,192.1 198.6,188.5 204.9,184.9 213.4,181.3 214.1,177.7 217.2,174.1 220.4,170.5 237.7,166.9 240.4,163.2 246.6,159.6 247.1,156.0 260.2,152.4 261.1,148.8 264.7,145.2 276.2,141.6 276.5,138.0 285.9,134.4 287.4,130.8 301.5,127.2 308.5,123.6 308.8,119.9 322.2,116.3 331.3,112.7 344.9,109.1 367.0,105.5 375.3,101.9 380.9,98.3 381.4,94.7 396.0,91.1 405.4,87.5 424.9,83.9 425.8,80.3 430.3,76.6 432.6,73.0 437.8,69.4 450.1,65.8 459.9,62.2 576.8,58.6 759.9,55.0" fill="none" stroke="#ea580c" stroke-width="2.2"/>
<line x1="605" y1="55" x2="630" y2="55" stroke="#ea580c" stroke-width="3"/>
<text x="637" y="59" font-family="sans-serif" font-size="12">FlexTDOA (n=98)</text>
<polyline points="77.2,405.0 80.6,401.1 81.9,397.2 82.6,393.3 84.0,389.4 84.5,385.6 84.9,381.7 87.7,377.8 87.8,373.9 88.8,370.0 90.0,366.1 91.3,362.2 92.3,358.3 92.4,354.4 94.9,350.6 113.9,346.7 115.9,342.8 122.0,338.9 122.1,335.0 122.4,331.1 124.5,327.2 125.4,323.3 125.6,319.4 125.6,315.6 125.7,311.7 125.9,307.8 126.1,303.9 126.2,300.0 126.3,296.1 126.6,292.2 127.1,288.3 127.1,284.4 127.1,280.6 127.3,276.7 127.4,272.8 127.6,268.9 127.6,265.0 128.3,261.1 128.5,257.2 128.6,253.3 128.6,249.4 129.1,245.6 129.5,241.7 129.6,237.8 130.1,233.9 130.5,230.0 130.8,226.1 130.8,222.2 130.8,218.3 131.0,214.4 131.2,210.6 131.4,206.7 131.6,202.8 132.0,198.9 132.2,195.0 132.4,191.1 132.4,187.2 132.6,183.3 132.8,179.4 133.1,175.6 133.4,171.7 133.6,167.8 135.1,163.9 141.4,160.0 174.3,156.1 185.6,152.2 205.1,148.3 208.8,144.4 211.2,140.6 242.5,136.7 253.8,132.8 271.3,128.9 279.0,125.0 280.2,121.1 305.9,117.2 350.9,113.3 367.4,109.4 376.1,105.6 388.8,101.7 400.2,97.8 420.5,93.9 460.8,90.0 510.5,86.1 515.0,82.2 517.5,78.3 572.6,74.4 596.6,70.6 607.0,66.7 612.3,62.8 736.5,58.9 761.4,55.0" fill="none" stroke="#2563eb" stroke-width="2.2"/>
<line x1="605" y1="73" x2="630" y2="73" stroke="#2563eb" stroke-width="3"/>
<text x="637" y="77" font-family="sans-serif" font-size="12">Native DS-TWR (n=91)</text>
<polyline points="83.9,405.0 86.8,401.1 93.0,397.1 93.3,393.2 93.3,389.3 95.4,385.3 96.2,381.4 96.6,377.5 98.3,373.5 98.4,369.6 98.7,365.7 99.3,361.7 99.3,357.8 99.8,353.9 101.3,349.9 101.7,346.0 102.7,342.1 103.0,338.1 103.1,334.2 103.6,330.3 103.8,326.3 104.0,322.4 104.0,318.5 104.2,314.6 104.3,310.6 104.6,306.7 104.8,302.8 105.3,298.8 105.7,294.9 106.2,291.0 106.8,287.0 106.9,283.1 108.7,279.2 109.0,275.2 110.3,271.3 121.3,267.4 121.4,263.4 134.8,259.5 137.3,255.6 140.7,251.6 141.0,247.7 141.2,243.8 141.6,239.8 141.8,235.9 142.5,232.0 143.3,228.0 143.5,224.1 144.8,220.2 145.1,216.2 145.3,212.3 145.8,208.4 146.2,204.4 146.5,200.5 146.6,196.6 147.4,192.6 147.4,188.7 147.7,184.8 148.7,180.8 148.9,176.9 149.2,173.0 150.9,169.0 151.0,165.1 151.3,161.2 153.6,157.2 164.1,153.3 174.8,149.4 189.3,145.4 195.7,141.5 227.2,137.6 240.2,133.7 241.7,129.7 248.3,125.8 259.1,121.9 282.4,117.9 297.2,114.0 323.1,110.1 335.8,106.1 366.8,102.2 380.6,98.3 406.2,94.3 455.4,90.4 456.6,86.5 473.1,82.5 482.2,78.6 499.1,74.7 506.4,70.7 612.9,66.8 657.0,62.9 697.2,58.9 795.0,55.0" fill="none" stroke="#7c3aed" stroke-width="2.2"/>
<line x1="605" y1="91" x2="630" y2="91" stroke="#7c3aed" stroke-width="3"/>
<text x="637" y="95" font-family="sans-serif" font-size="12">Passive DS-TWR (n=90)</text>
<text x="435.0" y="458" text-anchor="middle" font-family="sans-serif" font-size="13">aligned UWB - RTK disagreement [m]</text>
<text x="18" y="230.0" text-anchor="middle" font-family="sans-serif" font-size="13" transform="rotate(-90 18 230.0)">cumulative probability [%]</text>
</svg>
