ISO-10303-21;
HEADER;
FILE_DESCRIPTION(('FreeCAD Model'),'2;1');
FILE_NAME('/var/www/3D/0T/12710708.2.1.stp','2022-05-05T08:24:35',(
    'Author'),(''),'Open CASCADE STEP processor 6.9','FreeCAD','Unknown'
  );
FILE_SCHEMA(('AUTOMOTIVE_DESIGN { 1 0 10303 214 1 1 1 1 }'));
ENDSEC;
DATA;
#1 = APPLICATION_PROTOCOL_DEFINITION('international standard',
  'automotive_design',2000,#2);
#2 = APPLICATION_CONTEXT(
  'core data for automotive mechanical design processes');
#3 = SHAPE_DEFINITION_REPRESENTATION(#4,#10);
#4 = PRODUCT_DEFINITION_SHAPE('','',#5);
#5 = PRODUCT_DEFINITION('design','',#6,#9);
#6 = PRODUCT_DEFINITION_FORMATION('','',#7);
#7 = PRODUCT('ASSEMBLY','ASSEMBLY','',(#8));
#8 = PRODUCT_CONTEXT('',#2,'mechanical');
#9 = PRODUCT_DEFINITION_CONTEXT('part definition',#2,'design');
#10 = SHAPE_REPRESENTATION('',(#11,#15,#19),#23);
#11 = AXIS2_PLACEMENT_3D('',#12,#13,#14);
#12 = CARTESIAN_POINT('',(0.,0.,0.));
#13 = DIRECTION('',(0.,0.,1.));
#14 = DIRECTION('',(1.,0.,-0.));
#15 = AXIS2_PLACEMENT_3D('',#16,#17,#18);
#16 = CARTESIAN_POINT('',(0.,0.,0.));
#17 = DIRECTION('',(0.,0.,1.));
#18 = DIRECTION('',(1.,0.,0.));
#19 = AXIS2_PLACEMENT_3D('',#20,#21,#22);
#20 = CARTESIAN_POINT('',(0.,0.,0.));
#21 = DIRECTION('',(0.,0.,1.));
#22 = DIRECTION('',(1.,0.,0.));
#23 = ( GEOMETRIC_REPRESENTATION_CONTEXT(3) 
GLOBAL_UNCERTAINTY_ASSIGNED_CONTEXT((#27)) GLOBAL_UNIT_ASSIGNED_CONTEXT(
(#24,#25,#26)) REPRESENTATION_CONTEXT('Context #1',
  '3D Context with UNIT and UNCERTAINTY') );
#24 = ( LENGTH_UNIT() NAMED_UNIT(*) SI_UNIT(.MILLI.,.METRE.) );
#25 = ( NAMED_UNIT(*) PLANE_ANGLE_UNIT() SI_UNIT($,.RADIAN.) );
#26 = ( NAMED_UNIT(*) SI_UNIT($,.STERADIAN.) SOLID_ANGLE_UNIT() );
#27 = UNCERTAINTY_MEASURE_WITH_UNIT(LENGTH_MEASURE(1.E-07),#24,
  'distance_accuracy_value','confusion accuracy');
#28 = PRODUCT_RELATED_PRODUCT_CATEGORY('part',$,(#7));
#29 = SHAPE_REPRESENTATION('',(#11,#30,#42,#54,#66,#78,#90,#102,#114,
    #126,#138,#150,#162,#174,#186,#198,#210,#222,#234,#246,#258,#270,
    #282,#294,#306,#318,#330,#342,#354,#366,#378),#390);
#30 = MANIFOLD_SOLID_BREP('',#31);
#31 = CLOSED_SHELL('',(#32));
#32 = ADVANCED_FACE('',(#33),#37,.T.);
#33 = FACE_BOUND('',#34,.T.);
#34 = VERTEX_LOOP('',#35);
#35 = VERTEX_POINT('',#36);
#36 = CARTESIAN_POINT('',(-1.25,1.,0.));
#37 = SPHERICAL_SURFACE('',#38,0.155);
#38 = AXIS2_PLACEMENT_3D('',#39,#40,#41);
#39 = CARTESIAN_POINT('',(-1.25,1.,0.155));
#40 = DIRECTION('',(0.,0.,1.));
#41 = DIRECTION('',(1.,0.,0.));
#42 = MANIFOLD_SOLID_BREP('',#43);
#43 = CLOSED_SHELL('',(#44));
#44 = ADVANCED_FACE('',(#45),#49,.T.);
#45 = FACE_BOUND('',#46,.T.);
#46 = VERTEX_LOOP('',#47);
#47 = VERTEX_POINT('',#48);
#48 = CARTESIAN_POINT('',(-1.25,0.5,0.));
#49 = SPHERICAL_SURFACE('',#50,0.155);
#50 = AXIS2_PLACEMENT_3D('',#51,#52,#53);
#51 = CARTESIAN_POINT('',(-1.25,0.5,0.155));
#52 = DIRECTION('',(0.,0.,1.));
#53 = DIRECTION('',(1.,0.,0.));
#54 = MANIFOLD_SOLID_BREP('',#55);
#55 = CLOSED_SHELL('',(#56));
#56 = ADVANCED_FACE('',(#57),#61,.T.);
#57 = FACE_BOUND('',#58,.T.);
#58 = VERTEX_LOOP('',#59);
#59 = VERTEX_POINT('',#60);
#60 = CARTESIAN_POINT('',(-1.25,0.,0.));
#61 = SPHERICAL_SURFACE('',#62,0.155);
#62 = AXIS2_PLACEMENT_3D('',#63,#64,#65);
#63 = CARTESIAN_POINT('',(-1.25,0.,0.155));
#64 = DIRECTION('',(0.,0.,1.));
#65 = DIRECTION('',(1.,0.,0.));
#66 = MANIFOLD_SOLID_BREP('',#67);
#67 = CLOSED_SHELL('',(#68));
#68 = ADVANCED_FACE('',(#69),#73,.T.);
#69 = FACE_BOUND('',#70,.T.);
#70 = VERTEX_LOOP('',#71);
#71 = VERTEX_POINT('',#72);
#72 = CARTESIAN_POINT('',(-1.25,-0.5,0.));
#73 = SPHERICAL_SURFACE('',#74,0.155);
#74 = AXIS2_PLACEMENT_3D('',#75,#76,#77);
#75 = CARTESIAN_POINT('',(-1.25,-0.5,0.155));
#76 = DIRECTION('',(0.,0.,1.));
#77 = DIRECTION('',(1.,0.,0.));
#78 = MANIFOLD_SOLID_BREP('',#79);
#79 = CLOSED_SHELL('',(#80));
#80 = ADVANCED_FACE('',(#81),#85,.T.);
#81 = FACE_BOUND('',#82,.T.);
#82 = VERTEX_LOOP('',#83);
#83 = VERTEX_POINT('',#84);
#84 = CARTESIAN_POINT('',(-1.25,-1.,0.));
#85 = SPHERICAL_SURFACE('',#86,0.155);
#86 = AXIS2_PLACEMENT_3D('',#87,#88,#89);
#87 = CARTESIAN_POINT('',(-1.25,-1.,0.155));
#88 = DIRECTION('',(0.,0.,1.));
#89 = DIRECTION('',(1.,0.,0.));
#90 = MANIFOLD_SOLID_BREP('',#91);
#91 = CLOSED_SHELL('',(#92));
#92 = ADVANCED_FACE('',(#93),#97,.T.);
#93 = FACE_BOUND('',#94,.T.);
#94 = VERTEX_LOOP('',#95);
#95 = VERTEX_POINT('',#96);
#96 = CARTESIAN_POINT('',(-0.75,1.,0.));
#97 = SPHERICAL_SURFACE('',#98,0.155);
#98 = AXIS2_PLACEMENT_3D('',#99,#100,#101);
#99 = CARTESIAN_POINT('',(-0.75,1.,0.155));
#100 = DIRECTION('',(0.,0.,1.));
#101 = DIRECTION('',(1.,0.,0.));
#102 = MANIFOLD_SOLID_BREP('',#103);
#103 = CLOSED_SHELL('',(#104));
#104 = ADVANCED_FACE('',(#105),#109,.T.);
#105 = FACE_BOUND('',#106,.T.);
#106 = VERTEX_LOOP('',#107);
#107 = VERTEX_POINT('',#108);
#108 = CARTESIAN_POINT('',(-0.75,0.5,0.));
#109 = SPHERICAL_SURFACE('',#110,0.155);
#110 = AXIS2_PLACEMENT_3D('',#111,#112,#113);
#111 = CARTESIAN_POINT('',(-0.75,0.5,0.155));
#112 = DIRECTION('',(0.,0.,1.));
#113 = DIRECTION('',(1.,0.,0.));
#114 = MANIFOLD_SOLID_BREP('',#115);
#115 = CLOSED_SHELL('',(#116));
#116 = ADVANCED_FACE('',(#117),#121,.T.);
#117 = FACE_BOUND('',#118,.T.);
#118 = VERTEX_LOOP('',#119);
#119 = VERTEX_POINT('',#120);
#120 = CARTESIAN_POINT('',(-0.75,0.,0.));
#121 = SPHERICAL_SURFACE('',#122,0.155);
#122 = AXIS2_PLACEMENT_3D('',#123,#124,#125);
#123 = CARTESIAN_POINT('',(-0.75,0.,0.155));
#124 = DIRECTION('',(0.,0.,1.));
#125 = DIRECTION('',(1.,0.,0.));
#126 = MANIFOLD_SOLID_BREP('',#127);
#127 = CLOSED_SHELL('',(#128));
#128 = ADVANCED_FACE('',(#129),#133,.T.);
#129 = FACE_BOUND('',#130,.T.);
#130 = VERTEX_LOOP('',#131);
#131 = VERTEX_POINT('',#132);
#132 = CARTESIAN_POINT('',(-0.75,-0.5,0.));
#133 = SPHERICAL_SURFACE('',#134,0.155);
#134 = AXIS2_PLACEMENT_3D('',#135,#136,#137);
#135 = CARTESIAN_POINT('',(-0.75,-0.5,0.155));
#136 = DIRECTION('',(0.,0.,1.));
#137 = DIRECTION('',(1.,0.,0.));
#138 = MANIFOLD_SOLID_BREP('',#139);
#139 = CLOSED_SHELL('',(#140));
#140 = ADVANCED_FACE('',(#141),#145,.T.);
#141 = FACE_BOUND('',#142,.T.);
#142 = VERTEX_LOOP('',#143);
#143 = VERTEX_POINT('',#144);
#144 = CARTESIAN_POINT('',(-0.75,-1.,0.));
#145 = SPHERICAL_SURFACE('',#146,0.155);
#146 = AXIS2_PLACEMENT_3D('',#147,#148,#149);
#147 = CARTESIAN_POINT('',(-0.75,-1.,0.155));
#148 = DIRECTION('',(0.,0.,1.));
#149 = DIRECTION('',(1.,0.,0.));
#150 = MANIFOLD_SOLID_BREP('',#151);
#151 = CLOSED_SHELL('',(#152));
#152 = ADVANCED_FACE('',(#153),#157,.T.);
#153 = FACE_BOUND('',#154,.T.);
#154 = VERTEX_LOOP('',#155);
#155 = VERTEX_POINT('',#156);
#156 = CARTESIAN_POINT('',(-0.25,1.,0.));
#157 = SPHERICAL_SURFACE('',#158,0.155);
#158 = AXIS2_PLACEMENT_3D('',#159,#160,#161);
#159 = CARTESIAN_POINT('',(-0.25,1.,0.155));
#160 = DIRECTION('',(0.,0.,1.));
#161 = DIRECTION('',(1.,0.,0.));
#162 = MANIFOLD_SOLID_BREP('',#163);
#163 = CLOSED_SHELL('',(#164));
#164 = ADVANCED_FACE('',(#165),#169,.T.);
#165 = FACE_BOUND('',#166,.T.);
#166 = VERTEX_LOOP('',#167);
#167 = VERTEX_POINT('',#168);
#168 = CARTESIAN_POINT('',(-0.25,0.5,0.));
#169 = SPHERICAL_SURFACE('',#170,0.155);
#170 = AXIS2_PLACEMENT_3D('',#171,#172,#173);
#171 = CARTESIAN_POINT('',(-0.25,0.5,0.155));
#172 = DIRECTION('',(0.,0.,1.));
#173 = DIRECTION('',(1.,0.,0.));
#174 = MANIFOLD_SOLID_BREP('',#175);
#175 = CLOSED_SHELL('',(#176));
#176 = ADVANCED_FACE('',(#177),#181,.T.);
#177 = FACE_BOUND('',#178,.T.);
#178 = VERTEX_LOOP('',#179);
#179 = VERTEX_POINT('',#180);
#180 = CARTESIAN_POINT('',(-0.25,0.,0.));
#181 = SPHERICAL_SURFACE('',#182,0.155);
#182 = AXIS2_PLACEMENT_3D('',#183,#184,#185);
#183 = CARTESIAN_POINT('',(-0.25,0.,0.155));
#184 = DIRECTION('',(0.,0.,1.));
#185 = DIRECTION('',(1.,0.,0.));
#186 = MANIFOLD_SOLID_BREP('',#187);
#187 = CLOSED_SHELL('',(#188));
#188 = ADVANCED_FACE('',(#189),#193,.T.);
#189 = FACE_BOUND('',#190,.T.);
#190 = VERTEX_LOOP('',#191);
#191 = VERTEX_POINT('',#192);
#192 = CARTESIAN_POINT('',(-0.25,-0.5,0.));
#193 = SPHERICAL_SURFACE('',#194,0.155);
#194 = AXIS2_PLACEMENT_3D('',#195,#196,#197);
#195 = CARTESIAN_POINT('',(-0.25,-0.5,0.155));
#196 = DIRECTION('',(0.,0.,1.));
#197 = DIRECTION('',(1.,0.,0.));
#198 = MANIFOLD_SOLID_BREP('',#199);
#199 = CLOSED_SHELL('',(#200));
#200 = ADVANCED_FACE('',(#201),#205,.T.);
#201 = FACE_BOUND('',#202,.T.);
#202 = VERTEX_LOOP('',#203);
#203 = VERTEX_POINT('',#204);
#204 = CARTESIAN_POINT('',(-0.25,-1.,0.));
#205 = SPHERICAL_SURFACE('',#206,0.155);
#206 = AXIS2_PLACEMENT_3D('',#207,#208,#209);
#207 = CARTESIAN_POINT('',(-0.25,-1.,0.155));
#208 = DIRECTION('',(0.,0.,1.));
#209 = DIRECTION('',(1.,0.,0.));
#210 = MANIFOLD_SOLID_BREP('',#211);
#211 = CLOSED_SHELL('',(#212));
#212 = ADVANCED_FACE('',(#213),#217,.T.);
#213 = FACE_BOUND('',#214,.T.);
#214 = VERTEX_LOOP('',#215);
#215 = VERTEX_POINT('',#216);
#216 = CARTESIAN_POINT('',(0.25,1.,0.));
#217 = SPHERICAL_SURFACE('',#218,0.155);
#218 = AXIS2_PLACEMENT_3D('',#219,#220,#221);
#219 = CARTESIAN_POINT('',(0.25,1.,0.155));
#220 = DIRECTION('',(0.,0.,1.));
#221 = DIRECTION('',(1.,0.,0.));
#222 = MANIFOLD_SOLID_BREP('',#223);
#223 = CLOSED_SHELL('',(#224));
#224 = ADVANCED_FACE('',(#225),#229,.T.);
#225 = FACE_BOUND('',#226,.T.);
#226 = VERTEX_LOOP('',#227);
#227 = VERTEX_POINT('',#228);
#228 = CARTESIAN_POINT('',(0.25,0.5,0.));
#229 = SPHERICAL_SURFACE('',#230,0.155);
#230 = AXIS2_PLACEMENT_3D('',#231,#232,#233);
#231 = CARTESIAN_POINT('',(0.25,0.5,0.155));
#232 = DIRECTION('',(0.,0.,1.));
#233 = DIRECTION('',(1.,0.,0.));
#234 = MANIFOLD_SOLID_BREP('',#235);
#235 = CLOSED_SHELL('',(#236));
#236 = ADVANCED_FACE('',(#237),#241,.T.);
#237 = FACE_BOUND('',#238,.T.);
#238 = VERTEX_LOOP('',#239);
#239 = VERTEX_POINT('',#240);
#240 = CARTESIAN_POINT('',(0.25,0.,0.));
#241 = SPHERICAL_SURFACE('',#242,0.155);
#242 = AXIS2_PLACEMENT_3D('',#243,#244,#245);
#243 = CARTESIAN_POINT('',(0.25,0.,0.155));
#244 = DIRECTION('',(0.,0.,1.));
#245 = DIRECTION('',(1.,0.,0.));
#246 = MANIFOLD_SOLID_BREP('',#247);
#247 = CLOSED_SHELL('',(#248));
#248 = ADVANCED_FACE('',(#249),#253,.T.);
#249 = FACE_BOUND('',#250,.T.);
#250 = VERTEX_LOOP('',#251);
#251 = VERTEX_POINT('',#252);
#252 = CARTESIAN_POINT('',(0.25,-0.5,0.));
#253 = SPHERICAL_SURFACE('',#254,0.155);
#254 = AXIS2_PLACEMENT_3D('',#255,#256,#257);
#255 = CARTESIAN_POINT('',(0.25,-0.5,0.155));
#256 = DIRECTION('',(0.,0.,1.));
#257 = DIRECTION('',(1.,0.,0.));
#258 = MANIFOLD_SOLID_BREP('',#259);
#259 = CLOSED_SHELL('',(#260));
#260 = ADVANCED_FACE('',(#261),#265,.T.);
#261 = FACE_BOUND('',#262,.T.);
#262 = VERTEX_LOOP('',#263);
#263 = VERTEX_POINT('',#264);
#264 = CARTESIAN_POINT('',(0.25,-1.,0.));
#265 = SPHERICAL_SURFACE('',#266,0.155);
#266 = AXIS2_PLACEMENT_3D('',#267,#268,#269);
#267 = CARTESIAN_POINT('',(0.25,-1.,0.155));
#268 = DIRECTION('',(0.,0.,1.));
#269 = DIRECTION('',(1.,0.,0.));
#270 = MANIFOLD_SOLID_BREP('',#271);
#271 = CLOSED_SHELL('',(#272));
#272 = ADVANCED_FACE('',(#273),#277,.T.);
#273 = FACE_BOUND('',#274,.T.);
#274 = VERTEX_LOOP('',#275);
#275 = VERTEX_POINT('',#276);
#276 = CARTESIAN_POINT('',(0.75,1.,0.));
#277 = SPHERICAL_SURFACE('',#278,0.155);
#278 = AXIS2_PLACEMENT_3D('',#279,#280,#281);
#279 = CARTESIAN_POINT('',(0.75,1.,0.155));
#280 = DIRECTION('',(0.,0.,1.));
#281 = DIRECTION('',(1.,0.,0.));
#282 = MANIFOLD_SOLID_BREP('',#283);
#283 = CLOSED_SHELL('',(#284));
#284 = ADVANCED_FACE('',(#285),#289,.T.);
#285 = FACE_BOUND('',#286,.T.);
#286 = VERTEX_LOOP('',#287);
#287 = VERTEX_POINT('',#288);
#288 = CARTESIAN_POINT('',(0.75,0.5,0.));
#289 = SPHERICAL_SURFACE('',#290,0.155);
#290 = AXIS2_PLACEMENT_3D('',#291,#292,#293);
#291 = CARTESIAN_POINT('',(0.75,0.5,0.155));
#292 = DIRECTION('',(0.,0.,1.));
#293 = DIRECTION('',(1.,0.,0.));
#294 = MANIFOLD_SOLID_BREP('',#295);
#295 = CLOSED_SHELL('',(#296));
#296 = ADVANCED_FACE('',(#297),#301,.T.);
#297 = FACE_BOUND('',#298,.T.);
#298 = VERTEX_LOOP('',#299);
#299 = VERTEX_POINT('',#300);
#300 = CARTESIAN_POINT('',(0.75,0.,0.));
#301 = SPHERICAL_SURFACE('',#302,0.155);
#302 = AXIS2_PLACEMENT_3D('',#303,#304,#305);
#303 = CARTESIAN_POINT('',(0.75,0.,0.155));
#304 = DIRECTION('',(0.,0.,1.));
#305 = DIRECTION('',(1.,0.,0.));
#306 = MANIFOLD_SOLID_BREP('',#307);
#307 = CLOSED_SHELL('',(#308));
#308 = ADVANCED_FACE('',(#309),#313,.T.);
#309 = FACE_BOUND('',#310,.T.);
#310 = VERTEX_LOOP('',#311);
#311 = VERTEX_POINT('',#312);
#312 = CARTESIAN_POINT('',(0.75,-0.5,0.));
#313 = SPHERICAL_SURFACE('',#314,0.155);
#314 = AXIS2_PLACEMENT_3D('',#315,#316,#317);
#315 = CARTESIAN_POINT('',(0.75,-0.5,0.155));
#316 = DIRECTION('',(0.,0.,1.));
#317 = DIRECTION('',(1.,0.,0.));
#318 = MANIFOLD_SOLID_BREP('',#319);
#319 = CLOSED_SHELL('',(#320));
#320 = ADVANCED_FACE('',(#321),#325,.T.);
#321 = FACE_BOUND('',#322,.T.);
#322 = VERTEX_LOOP('',#323);
#323 = VERTEX_POINT('',#324);
#324 = CARTESIAN_POINT('',(0.75,-1.,0.));
#325 = SPHERICAL_SURFACE('',#326,0.155);
#326 = AXIS2_PLACEMENT_3D('',#327,#328,#329);
#327 = CARTESIAN_POINT('',(0.75,-1.,0.155));
#328 = DIRECTION('',(0.,0.,1.));
#329 = DIRECTION('',(1.,0.,0.));
#330 = MANIFOLD_SOLID_BREP('',#331);
#331 = CLOSED_SHELL('',(#332));
#332 = ADVANCED_FACE('',(#333),#337,.T.);
#333 = FACE_BOUND('',#334,.T.);
#334 = VERTEX_LOOP('',#335);
#335 = VERTEX_POINT('',#336);
#336 = CARTESIAN_POINT('',(1.25,1.,0.));
#337 = SPHERICAL_SURFACE('',#338,0.155);
#338 = AXIS2_PLACEMENT_3D('',#339,#340,#341);
#339 = CARTESIAN_POINT('',(1.25,1.,0.155));
#340 = DIRECTION('',(0.,0.,1.));
#341 = DIRECTION('',(1.,0.,0.));
#342 = MANIFOLD_SOLID_BREP('',#343);
#343 = CLOSED_SHELL('',(#344));
#344 = ADVANCED_FACE('',(#345),#349,.T.);
#345 = FACE_BOUND('',#346,.T.);
#346 = VERTEX_LOOP('',#347);
#347 = VERTEX_POINT('',#348);
#348 = CARTESIAN_POINT('',(1.25,0.5,0.));
#349 = SPHERICAL_SURFACE('',#350,0.155);
#350 = AXIS2_PLACEMENT_3D('',#351,#352,#353);
#351 = CARTESIAN_POINT('',(1.25,0.5,0.155));
#352 = DIRECTION('',(0.,0.,1.));
#353 = DIRECTION('',(1.,0.,0.));
#354 = MANIFOLD_SOLID_BREP('',#355);
#355 = CLOSED_SHELL('',(#356));
#356 = ADVANCED_FACE('',(#357),#361,.T.);
#357 = FACE_BOUND('',#358,.T.);
#358 = VERTEX_LOOP('',#359);
#359 = VERTEX_POINT('',#360);
#360 = CARTESIAN_POINT('',(1.25,0.,0.));
#361 = SPHERICAL_SURFACE('',#362,0.155);
#362 = AXIS2_PLACEMENT_3D('',#363,#364,#365);
#363 = CARTESIAN_POINT('',(1.25,0.,0.155));
#364 = DIRECTION('',(0.,0.,1.));
#365 = DIRECTION('',(1.,0.,0.));
#366 = MANIFOLD_SOLID_BREP('',#367);
#367 = CLOSED_SHELL('',(#368));
#368 = ADVANCED_FACE('',(#369),#373,.T.);
#369 = FACE_BOUND('',#370,.T.);
#370 = VERTEX_LOOP('',#371);
#371 = VERTEX_POINT('',#372);
#372 = CARTESIAN_POINT('',(1.25,-0.5,0.));
#373 = SPHERICAL_SURFACE('',#374,0.155);
#374 = AXIS2_PLACEMENT_3D('',#375,#376,#377);
#375 = CARTESIAN_POINT('',(1.25,-0.5,0.155));
#376 = DIRECTION('',(0.,0.,1.));
#377 = DIRECTION('',(1.,0.,0.));
#378 = MANIFOLD_SOLID_BREP('',#379);
#379 = CLOSED_SHELL('',(#380));
#380 = ADVANCED_FACE('',(#381),#385,.T.);
#381 = FACE_BOUND('',#382,.T.);
#382 = VERTEX_LOOP('',#383);
#383 = VERTEX_POINT('',#384);
#384 = CARTESIAN_POINT('',(1.25,-1.,0.));
#385 = SPHERICAL_SURFACE('',#386,0.155);
#386 = AXIS2_PLACEMENT_3D('',#387,#388,#389);
#387 = CARTESIAN_POINT('',(1.25,-1.,0.155));
#388 = DIRECTION('',(0.,0.,1.));
#389 = DIRECTION('',(1.,0.,0.));
#390 = ( GEOMETRIC_REPRESENTATION_CONTEXT(3) 
GLOBAL_UNCERTAINTY_ASSIGNED_CONTEXT((#394)) GLOBAL_UNIT_ASSIGNED_CONTEXT
((#391,#392,#393)) REPRESENTATION_CONTEXT('Context #1',
  '3D Context with UNIT and UNCERTAINTY') );
#391 = ( LENGTH_UNIT() NAMED_UNIT(*) SI_UNIT(.MILLI.,.METRE.) );
#392 = ( NAMED_UNIT(*) PLANE_ANGLE_UNIT() SI_UNIT($,.RADIAN.) );
#393 = ( NAMED_UNIT(*) SI_UNIT($,.STERADIAN.) SOLID_ANGLE_UNIT() );
#394 = UNCERTAINTY_MEASURE_WITH_UNIT(LENGTH_MEASURE(1.E-07),#391,
  'distance_accuracy_value','confusion accuracy');
#395 = SHAPE_DEFINITION_REPRESENTATION(#396,#29);
#396 = PRODUCT_DEFINITION_SHAPE('','',#397);
#397 = PRODUCT_DEFINITION('design','',#398,#401);
#398 = PRODUCT_DEFINITION_FORMATION('','',#399);
#399 = PRODUCT('Array','Array','',(#400));
#400 = PRODUCT_CONTEXT('',#2,'mechanical');
#401 = PRODUCT_DEFINITION_CONTEXT('part definition',#2,'design');
#402 = CONTEXT_DEPENDENT_SHAPE_REPRESENTATION(#403,#405);
#403 = ( REPRESENTATION_RELATIONSHIP('','',#29,#10) 
REPRESENTATION_RELATIONSHIP_WITH_TRANSFORMATION(#404) 
SHAPE_REPRESENTATION_RELATIONSHIP() );
#404 = ITEM_DEFINED_TRANSFORMATION('','',#11,#15);
#405 = PRODUCT_DEFINITION_SHAPE('Placement','Placement of an item',#406
  );
#406 = NEXT_ASSEMBLY_USAGE_OCCURRENCE('1','=>[0:1:1:2]','',#5,#397,$);
#407 = PRODUCT_RELATED_PRODUCT_CATEGORY('part',$,(#399));
#408 = ADVANCED_BREP_SHAPE_REPRESENTATION('',(#11,#409),#829);
#409 = MANIFOLD_SOLID_BREP('',#410);
#410 = CLOSED_SHELL('',(#411,#531,#607,#687,#736,#763,#770,#825));
#411 = ADVANCED_FACE('',(#412),#426,.F.);
#412 = FACE_BOUND('',#413,.F.);
#413 = EDGE_LOOP('',(#414,#449,#477,#505));
#414 = ORIENTED_EDGE('',*,*,#415,.F.);
#415 = EDGE_CURVE('',#416,#418,#420,.T.);
#416 = VERTEX_POINT('',#417);
#417 = CARTESIAN_POINT('',(-1.534,-1.309,0.31));
#418 = VERTEX_POINT('',#419);
#419 = CARTESIAN_POINT('',(-1.534,-1.309,0.69));
#420 = SURFACE_CURVE('',#421,(#425,#437),.PCURVE_S1.);
#421 = LINE('',#422,#423);
#422 = CARTESIAN_POINT('',(-1.534,-1.309,0.31));
#423 = VECTOR('',#424,1.);
#424 = DIRECTION('',(0.,0.,1.));
#425 = PCURVE('',#426,#431);
#426 = PLANE('',#427);
#427 = AXIS2_PLACEMENT_3D('',#428,#429,#430);
#428 = CARTESIAN_POINT('',(-1.534,-1.309,0.31));
#429 = DIRECTION('',(1.,0.,0.));
#430 = DIRECTION('',(0.,0.,1.));
#431 = DEFINITIONAL_REPRESENTATION('',(#432),#436);
#432 = LINE('',#433,#434);
#433 = CARTESIAN_POINT('',(0.,0.));
#434 = VECTOR('',#435,1.);
#435 = DIRECTION('',(1.,0.));
#436 = ( GEOMETRIC_REPRESENTATION_CONTEXT(2) 
PARAMETRIC_REPRESENTATION_CONTEXT() REPRESENTATION_CONTEXT('2D SPACE',''
  ) );
#437 = PCURVE('',#438,#443);
#438 = PLANE('',#439);
#439 = AXIS2_PLACEMENT_3D('',#440,#441,#442);
#440 = CARTESIAN_POINT('',(-1.534,-1.309,0.31));
#441 = DIRECTION('',(0.,1.,0.));
#442 = DIRECTION('',(0.,0.,1.));
#443 = DEFINITIONAL_REPRESENTATION('',(#444),#448);
#444 = LINE('',#445,#446);
#445 = CARTESIAN_POINT('',(0.,0.));
#446 = VECTOR('',#447,1.);
#447 = DIRECTION('',(1.,0.));
#448 = ( GEOMETRIC_REPRESENTATION_CONTEXT(2) 
PARAMETRIC_REPRESENTATION_CONTEXT() REPRESENTATION_CONTEXT('2D SPACE',''
  ) );
#449 = ORIENTED_EDGE('',*,*,#450,.T.);
#450 = EDGE_CURVE('',#416,#451,#453,.T.);
#451 = VERTEX_POINT('',#452);
#452 = CARTESIAN_POINT('',(-1.534,1.309,0.31));
#453 = SURFACE_CURVE('',#454,(#458,#465),.PCURVE_S1.);
#454 = LINE('',#455,#456);
#455 = CARTESIAN_POINT('',(-1.534,-1.309,0.31));
#456 = VECTOR('',#457,1.);
#457 = DIRECTION('',(0.,1.,0.));
#458 = PCURVE('',#426,#459);
#459 = DEFINITIONAL_REPRESENTATION('',(#460),#464);
#460 = LINE('',#461,#462);
#461 = CARTESIAN_POINT('',(0.,0.));
#462 = VECTOR('',#463,1.);
#463 = DIRECTION('',(0.,-1.));
#464 = ( GEOMETRIC_REPRESENTATION_CONTEXT(2) 
PARAMETRIC_REPRESENTATION_CONTEXT() REPRESENTATION_CONTEXT('2D SPACE',''
  ) );
#465 = PCURVE('',#466,#471);
#466 = PLANE('',#467);
#467 = AXIS2_PLACEMENT_3D('',#468,#469,#470);
#468 = CARTESIAN_POINT('',(-1.534,-1.309,0.31));
#469 = DIRECTION('',(0.,0.,1.));
#470 = DIRECTION('',(1.,0.,0.));
#471 = DEFINITIONAL_REPRESENTATION('',(#472),#476);
#472 = LINE('',#473,#474);
#473 = CARTESIAN_POINT('',(0.,0.));
#474 = VECTOR('',#475,1.);
#475 = DIRECTION('',(0.,1.));
#476 = ( GEOMETRIC_REPRESENTATION_CONTEXT(2) 
PARAMETRIC_REPRESENTATION_CONTEXT() REPRESENTATION_CONTEXT('2D SPACE',''
  ) );
#477 = ORIENTED_EDGE('',*,*,#478,.T.);
#478 = EDGE_CURVE('',#451,#479,#481,.T.);
#479 = VERTEX_POINT('',#480);
#480 = CARTESIAN_POINT('',(-1.534,1.309,0.69));
#481 = SURFACE_CURVE('',#482,(#486,#493),.PCURVE_S1.);
#482 = LINE('',#483,#484);
#483 = CARTESIAN_POINT('',(-1.534,1.309,0.31));
#484 = VECTOR('',#485,1.);
#485 = DIRECTION('',(0.,0.,1.));
#486 = PCURVE('',#426,#487);
#487 = DEFINITIONAL_REPRESENTATION('',(#488),#492);
#488 = LINE('',#489,#490);
#489 = CARTESIAN_POINT('',(0.,-2.618));
#490 = VECTOR('',#491,1.);
#491 = DIRECTION('',(1.,0.));
#492 = ( GEOMETRIC_REPRESENTATION_CONTEXT(2) 
PARAMETRIC_REPRESENTATION_CONTEXT() REPRESENTATION_CONTEXT('2D SPACE',''
  ) );
#493 = PCURVE('',#494,#499);
#494 = PLANE('',#495);
#495 = AXIS2_PLACEMENT_3D('',#496,#497,#498);
#496 = CARTESIAN_POINT('',(-1.534,1.309,0.31));
#497 = DIRECTION('',(0.,1.,0.));
#498 = DIRECTION('',(0.,0.,1.));
#499 = DEFINITIONAL_REPRESENTATION('',(#500),#504);
#500 = LINE('',#501,#502);
#501 = CARTESIAN_POINT('',(0.,0.));
#502 = VECTOR('',#503,1.);
#503 = DIRECTION('',(1.,0.));
#504 = ( GEOMETRIC_REPRESENTATION_CONTEXT(2) 
PARAMETRIC_REPRESENTATION_CONTEXT() REPRESENTATION_CONTEXT('2D SPACE',''
  ) );
#505 = ORIENTED_EDGE('',*,*,#506,.F.);
#506 = EDGE_CURVE('',#418,#479,#507,.T.);
#507 = SURFACE_CURVE('',#508,(#512,#519),.PCURVE_S1.);
#508 = LINE('',#509,#510);
#509 = CARTESIAN_POINT('',(-1.534,-1.309,0.69));
#510 = VECTOR('',#511,1.);
#511 = DIRECTION('',(0.,1.,0.));
#512 = PCURVE('',#426,#513);
#513 = DEFINITIONAL_REPRESENTATION('',(#514),#518);
#514 = LINE('',#515,#516);
#515 = CARTESIAN_POINT('',(0.38,0.));
#516 = VECTOR('',#517,1.);
#517 = DIRECTION('',(0.,-1.));
#518 = ( GEOMETRIC_REPRESENTATION_CONTEXT(2) 
PARAMETRIC_REPRESENTATION_CONTEXT() REPRESENTATION_CONTEXT('2D SPACE',''
  ) );
#519 = PCURVE('',#520,#525);
#520 = PLANE('',#521);
#521 = AXIS2_PLACEMENT_3D('',#522,#523,#524);
#522 = CARTESIAN_POINT('',(-1.534,-1.309,0.69));
#523 = DIRECTION('',(0.,0.,1.));
#524 = DIRECTION('',(1.,0.,0.));
#525 = DEFINITIONAL_REPRESENTATION('',(#526),#530);
#526 = LINE('',#527,#528);
#527 = CARTESIAN_POINT('',(0.,0.));
#528 = VECTOR('',#529,1.);
#529 = DIRECTION('',(0.,1.));
#530 = ( GEOMETRIC_REPRESENTATION_CONTEXT(2) 
PARAMETRIC_REPRESENTATION_CONTEXT() REPRESENTATION_CONTEXT('2D SPACE',''
  ) );
#531 = ADVANCED_FACE('',(#532),#438,.F.);
#532 = FACE_BOUND('',#533,.F.);
#533 = EDGE_LOOP('',(#534,#557,#558,#581));
#534 = ORIENTED_EDGE('',*,*,#535,.F.);
#535 = EDGE_CURVE('',#416,#536,#538,.T.);
#536 = VERTEX_POINT('',#537);
#537 = CARTESIAN_POINT('',(1.534,-1.309,0.31));
#538 = SURFACE_CURVE('',#539,(#543,#550),.PCURVE_S1.);
#539 = LINE('',#540,#541);
#540 = CARTESIAN_POINT('',(-1.534,-1.309,0.31));
#541 = VECTOR('',#542,1.);
#542 = DIRECTION('',(1.,0.,0.));
#543 = PCURVE('',#438,#544);
#544 = DEFINITIONAL_REPRESENTATION('',(#545),#549);
#545 = LINE('',#546,#547);
#546 = CARTESIAN_POINT('',(0.,0.));
#547 = VECTOR('',#548,1.);
#548 = DIRECTION('',(0.,1.));
#549 = ( GEOMETRIC_REPRESENTATION_CONTEXT(2) 
PARAMETRIC_REPRESENTATION_CONTEXT() REPRESENTATION_CONTEXT('2D SPACE',''
  ) );
#550 = PCURVE('',#466,#551);
#551 = DEFINITIONAL_REPRESENTATION('',(#552),#556);
#552 = LINE('',#553,#554);
#553 = CARTESIAN_POINT('',(0.,0.));
#554 = VECTOR('',#555,1.);
#555 = DIRECTION('',(1.,0.));
#556 = ( GEOMETRIC_REPRESENTATION_CONTEXT(2) 
PARAMETRIC_REPRESENTATION_CONTEXT() REPRESENTATION_CONTEXT('2D SPACE',''
  ) );
#557 = ORIENTED_EDGE('',*,*,#415,.T.);
#558 = ORIENTED_EDGE('',*,*,#559,.T.);
#559 = EDGE_CURVE('',#418,#560,#562,.T.);
#560 = VERTEX_POINT('',#561);
#561 = CARTESIAN_POINT('',(1.534,-1.309,0.69));
#562 = SURFACE_CURVE('',#563,(#567,#574),.PCURVE_S1.);
#563 = LINE('',#564,#565);
#564 = CARTESIAN_POINT('',(-1.534,-1.309,0.69));
#565 = VECTOR('',#566,1.);
#566 = DIRECTION('',(1.,0.,0.));
#567 = PCURVE('',#438,#568);
#568 = DEFINITIONAL_REPRESENTATION('',(#569),#573);
#569 = LINE('',#570,#571);
#570 = CARTESIAN_POINT('',(0.38,0.));
#571 = VECTOR('',#572,1.);
#572 = DIRECTION('',(0.,1.));
#573 = ( GEOMETRIC_REPRESENTATION_CONTEXT(2) 
PARAMETRIC_REPRESENTATION_CONTEXT() REPRESENTATION_CONTEXT('2D SPACE',''
  ) );
#574 = PCURVE('',#520,#575);
#575 = DEFINITIONAL_REPRESENTATION('',(#576),#580);
#576 = LINE('',#577,#578);
#577 = CARTESIAN_POINT('',(0.,0.));
#578 = VECTOR('',#579,1.);
#579 = DIRECTION('',(1.,0.));
#580 = ( GEOMETRIC_REPRESENTATION_CONTEXT(2) 
PARAMETRIC_REPRESENTATION_CONTEXT() REPRESENTATION_CONTEXT('2D SPACE',''
  ) );
#581 = ORIENTED_EDGE('',*,*,#582,.F.);
#582 = EDGE_CURVE('',#536,#560,#583,.T.);
#583 = SURFACE_CURVE('',#584,(#588,#595),.PCURVE_S1.);
#584 = LINE('',#585,#586);
#585 = CARTESIAN_POINT('',(1.534,-1.309,0.31));
#586 = VECTOR('',#587,1.);
#587 = DIRECTION('',(0.,0.,1.));
#588 = PCURVE('',#438,#589);
#589 = DEFINITIONAL_REPRESENTATION('',(#590),#594);
#590 = LINE('',#591,#592);
#591 = CARTESIAN_POINT('',(0.,3.068));
#592 = VECTOR('',#593,1.);
#593 = DIRECTION('',(1.,0.));
#594 = ( GEOMETRIC_REPRESENTATION_CONTEXT(2) 
PARAMETRIC_REPRESENTATION_CONTEXT() REPRESENTATION_CONTEXT('2D SPACE',''
  ) );
#595 = PCURVE('',#596,#601);
#596 = PLANE('',#597);
#597 = AXIS2_PLACEMENT_3D('',#598,#599,#600);
#598 = CARTESIAN_POINT('',(1.534,-1.309,0.31));
#599 = DIRECTION('',(1.,0.,0.));
#600 = DIRECTION('',(0.,0.,1.));
#601 = DEFINITIONAL_REPRESENTATION('',(#602),#606);
#602 = LINE('',#603,#604);
#603 = CARTESIAN_POINT('',(0.,0.));
#604 = VECTOR('',#605,1.);
#605 = DIRECTION('',(1.,0.));
#606 = ( GEOMETRIC_REPRESENTATION_CONTEXT(2) 
PARAMETRIC_REPRESENTATION_CONTEXT() REPRESENTATION_CONTEXT('2D SPACE',''
  ) );
#607 = ADVANCED_FACE('',(#608,#656),#520,.T.);
#608 = FACE_BOUND('',#609,.T.);
#609 = EDGE_LOOP('',(#610,#611,#612,#635));
#610 = ORIENTED_EDGE('',*,*,#506,.F.);
#611 = ORIENTED_EDGE('',*,*,#559,.T.);
#612 = ORIENTED_EDGE('',*,*,#613,.T.);
#613 = EDGE_CURVE('',#560,#614,#616,.T.);
#614 = VERTEX_POINT('',#615);
#615 = CARTESIAN_POINT('',(1.534,1.309,0.69));
#616 = SURFACE_CURVE('',#617,(#621,#628),.PCURVE_S1.);
#617 = LINE('',#618,#619);
#618 = CARTESIAN_POINT('',(1.534,-1.309,0.69));
#619 = VECTOR('',#620,1.);
#620 = DIRECTION('',(0.,1.,0.));
#621 = PCURVE('',#520,#622);
#622 = DEFINITIONAL_REPRESENTATION('',(#623),#627);
#623 = LINE('',#624,#625);
#624 = CARTESIAN_POINT('',(3.068,0.));
#625 = VECTOR('',#626,1.);
#626 = DIRECTION('',(0.,1.));
#627 = ( GEOMETRIC_REPRESENTATION_CONTEXT(2) 
PARAMETRIC_REPRESENTATION_CONTEXT() REPRESENTATION_CONTEXT('2D SPACE',''
  ) );
#628 = PCURVE('',#596,#629);
#629 = DEFINITIONAL_REPRESENTATION('',(#630),#634);
#630 = LINE('',#631,#632);
#631 = CARTESIAN_POINT('',(0.38,0.));
#632 = VECTOR('',#633,1.);
#633 = DIRECTION('',(0.,-1.));
#634 = ( GEOMETRIC_REPRESENTATION_CONTEXT(2) 
PARAMETRIC_REPRESENTATION_CONTEXT() REPRESENTATION_CONTEXT('2D SPACE',''
  ) );
#635 = ORIENTED_EDGE('',*,*,#636,.F.);
#636 = EDGE_CURVE('',#479,#614,#637,.T.);
#637 = SURFACE_CURVE('',#638,(#642,#649),.PCURVE_S1.);
#638 = LINE('',#639,#640);
#639 = CARTESIAN_POINT('',(-1.534,1.309,0.69));
#640 = VECTOR('',#641,1.);
#641 = DIRECTION('',(1.,0.,0.));
#642 = PCURVE('',#520,#643);
#643 = DEFINITIONAL_REPRESENTATION('',(#644),#648);
#644 = LINE('',#645,#646);
#645 = CARTESIAN_POINT('',(0.,2.618));
#646 = VECTOR('',#647,1.);
#647 = DIRECTION('',(1.,0.));
#648 = ( GEOMETRIC_REPRESENTATION_CONTEXT(2) 
PARAMETRIC_REPRESENTATION_CONTEXT() REPRESENTATION_CONTEXT('2D SPACE',''
  ) );
#649 = PCURVE('',#494,#650);
#650 = DEFINITIONAL_REPRESENTATION('',(#651),#655);
#651 = LINE('',#652,#653);
#652 = CARTESIAN_POINT('',(0.38,0.));
#653 = VECTOR('',#654,1.);
#654 = DIRECTION('',(0.,1.));
#655 = ( GEOMETRIC_REPRESENTATION_CONTEXT(2) 
PARAMETRIC_REPRESENTATION_CONTEXT() REPRESENTATION_CONTEXT('2D SPACE',''
  ) );
#656 = FACE_BOUND('',#657,.T.);
#657 = EDGE_LOOP('',(#658));
#658 = ORIENTED_EDGE('',*,*,#659,.F.);
#659 = EDGE_CURVE('',#660,#660,#662,.T.);
#660 = VERTEX_POINT('',#661);
#661 = CARTESIAN_POINT('',(-1.043125,0.98175,0.69));
#662 = SURFACE_CURVE('',#663,(#668,#675),.PCURVE_S1.);
#663 = CIRCLE('',#664,0.163625);
#664 = AXIS2_PLACEMENT_3D('',#665,#666,#667);
#665 = CARTESIAN_POINT('',(-1.20675,0.98175,0.69));
#666 = DIRECTION('',(0.,0.,1.));
#667 = DIRECTION('',(1.,0.,0.));
#668 = PCURVE('',#520,#669);
#669 = DEFINITIONAL_REPRESENTATION('',(#670),#674);
#670 = CIRCLE('',#671,0.163625);
#671 = AXIS2_PLACEMENT_2D('',#672,#673);
#672 = CARTESIAN_POINT('',(0.32725,2.29075));
#673 = DIRECTION('',(1.,0.));
#674 = ( GEOMETRIC_REPRESENTATION_CONTEXT(2) 
PARAMETRIC_REPRESENTATION_CONTEXT() REPRESENTATION_CONTEXT('2D SPACE',''
  ) );
#675 = PCURVE('',#676,#681);
#676 = CYLINDRICAL_SURFACE('',#677,0.163625);
#677 = AXIS2_PLACEMENT_3D('',#678,#679,#680);
#678 = CARTESIAN_POINT('',(-1.20675,0.98175,0.621));
#679 = DIRECTION('',(0.,0.,1.));
#680 = DIRECTION('',(1.,0.,0.));
#681 = DEFINITIONAL_REPRESENTATION('',(#682),#686);
#682 = LINE('',#683,#684);
#683 = CARTESIAN_POINT('',(0.,6.9E-02));
#684 = VECTOR('',#685,1.);
#685 = DIRECTION('',(1.,0.));
#686 = ( GEOMETRIC_REPRESENTATION_CONTEXT(2) 
PARAMETRIC_REPRESENTATION_CONTEXT() REPRESENTATION_CONTEXT('2D SPACE',''
  ) );
#687 = ADVANCED_FACE('',(#688),#494,.T.);
#688 = FACE_BOUND('',#689,.T.);
#689 = EDGE_LOOP('',(#690,#713,#714,#715));
#690 = ORIENTED_EDGE('',*,*,#691,.F.);
#691 = EDGE_CURVE('',#451,#692,#694,.T.);
#692 = VERTEX_POINT('',#693);
#693 = CARTESIAN_POINT('',(1.534,1.309,0.31));
#694 = SURFACE_CURVE('',#695,(#699,#706),.PCURVE_S1.);
#695 = LINE('',#696,#697);
#696 = CARTESIAN_POINT('',(-1.534,1.309,0.31));
#697 = VECTOR('',#698,1.);
#698 = DIRECTION('',(1.,0.,0.));
#699 = PCURVE('',#494,#700);
#700 = DEFINITIONAL_REPRESENTATION('',(#701),#705);
#701 = LINE('',#702,#703);
#702 = CARTESIAN_POINT('',(0.,0.));
#703 = VECTOR('',#704,1.);
#704 = DIRECTION('',(0.,1.));
#705 = ( GEOMETRIC_REPRESENTATION_CONTEXT(2) 
PARAMETRIC_REPRESENTATION_CONTEXT() REPRESENTATION_CONTEXT('2D SPACE',''
  ) );
#706 = PCURVE('',#466,#707);
#707 = DEFINITIONAL_REPRESENTATION('',(#708),#712);
#708 = LINE('',#709,#710);
#709 = CARTESIAN_POINT('',(0.,2.618));
#710 = VECTOR('',#711,1.);
#711 = DIRECTION('',(1.,0.));
#712 = ( GEOMETRIC_REPRESENTATION_CONTEXT(2) 
PARAMETRIC_REPRESENTATION_CONTEXT() REPRESENTATION_CONTEXT('2D SPACE',''
  ) );
#713 = ORIENTED_EDGE('',*,*,#478,.T.);
#714 = ORIENTED_EDGE('',*,*,#636,.T.);
#715 = ORIENTED_EDGE('',*,*,#716,.F.);
#716 = EDGE_CURVE('',#692,#614,#717,.T.);
#717 = SURFACE_CURVE('',#718,(#722,#729),.PCURVE_S1.);
#718 = LINE('',#719,#720);
#719 = CARTESIAN_POINT('',(1.534,1.309,0.31));
#720 = VECTOR('',#721,1.);
#721 = DIRECTION('',(0.,0.,1.));
#722 = PCURVE('',#494,#723);
#723 = DEFINITIONAL_REPRESENTATION('',(#724),#728);
#724 = LINE('',#725,#726);
#725 = CARTESIAN_POINT('',(0.,3.068));
#726 = VECTOR('',#727,1.);
#727 = DIRECTION('',(1.,0.));
#728 = ( GEOMETRIC_REPRESENTATION_CONTEXT(2) 
PARAMETRIC_REPRESENTATION_CONTEXT() REPRESENTATION_CONTEXT('2D SPACE',''
  ) );
#729 = PCURVE('',#596,#730);
#730 = DEFINITIONAL_REPRESENTATION('',(#731),#735);
#731 = LINE('',#732,#733);
#732 = CARTESIAN_POINT('',(0.,-2.618));
#733 = VECTOR('',#734,1.);
#734 = DIRECTION('',(1.,0.));
#735 = ( GEOMETRIC_REPRESENTATION_CONTEXT(2) 
PARAMETRIC_REPRESENTATION_CONTEXT() REPRESENTATION_CONTEXT('2D SPACE',''
  ) );
#736 = ADVANCED_FACE('',(#737),#466,.F.);
#737 = FACE_BOUND('',#738,.F.);
#738 = EDGE_LOOP('',(#739,#740,#741,#762));
#739 = ORIENTED_EDGE('',*,*,#450,.F.);
#740 = ORIENTED_EDGE('',*,*,#535,.T.);
#741 = ORIENTED_EDGE('',*,*,#742,.T.);
#742 = EDGE_CURVE('',#536,#692,#743,.T.);
#743 = SURFACE_CURVE('',#744,(#748,#755),.PCURVE_S1.);
#744 = LINE('',#745,#746);
#745 = CARTESIAN_POINT('',(1.534,-1.309,0.31));
#746 = VECTOR('',#747,1.);
#747 = DIRECTION('',(0.,1.,0.));
#748 = PCURVE('',#466,#749);
#749 = DEFINITIONAL_REPRESENTATION('',(#750),#754);
#750 = LINE('',#751,#752);
#751 = CARTESIAN_POINT('',(3.068,0.));
#752 = VECTOR('',#753,1.);
#753 = DIRECTION('',(0.,1.));
#754 = ( GEOMETRIC_REPRESENTATION_CONTEXT(2) 
PARAMETRIC_REPRESENTATION_CONTEXT() REPRESENTATION_CONTEXT('2D SPACE',''
  ) );
#755 = PCURVE('',#596,#756);
#756 = DEFINITIONAL_REPRESENTATION('',(#757),#761);
#757 = LINE('',#758,#759);
#758 = CARTESIAN_POINT('',(0.,0.));
#759 = VECTOR('',#760,1.);
#760 = DIRECTION('',(0.,-1.));
#761 = ( GEOMETRIC_REPRESENTATION_CONTEXT(2) 
PARAMETRIC_REPRESENTATION_CONTEXT() REPRESENTATION_CONTEXT('2D SPACE',''
  ) );
#762 = ORIENTED_EDGE('',*,*,#691,.F.);
#763 = ADVANCED_FACE('',(#764),#596,.T.);
#764 = FACE_BOUND('',#765,.T.);
#765 = EDGE_LOOP('',(#766,#767,#768,#769));
#766 = ORIENTED_EDGE('',*,*,#582,.F.);
#767 = ORIENTED_EDGE('',*,*,#742,.T.);
#768 = ORIENTED_EDGE('',*,*,#716,.T.);
#769 = ORIENTED_EDGE('',*,*,#613,.F.);
#770 = ADVANCED_FACE('',(#771),#676,.F.);
#771 = FACE_BOUND('',#772,.F.);
#772 = EDGE_LOOP('',(#773,#796,#797,#798));
#773 = ORIENTED_EDGE('',*,*,#774,.T.);
#774 = EDGE_CURVE('',#775,#660,#777,.T.);
#775 = VERTEX_POINT('',#776);
#776 = CARTESIAN_POINT('',(-1.043125,0.98175,0.621));
#777 = SEAM_CURVE('',#778,(#782,#789),.PCURVE_S1.);
#778 = LINE('',#779,#780);
#779 = CARTESIAN_POINT('',(-1.043125,0.98175,0.621));
#780 = VECTOR('',#781,1.);
#781 = DIRECTION('',(0.,0.,1.));
#782 = PCURVE('',#676,#783);
#783 = DEFINITIONAL_REPRESENTATION('',(#784),#788);
#784 = LINE('',#785,#786);
#785 = CARTESIAN_POINT('',(6.28318530718,-0.));
#786 = VECTOR('',#787,1.);
#787 = DIRECTION('',(0.,1.));
#788 = ( GEOMETRIC_REPRESENTATION_CONTEXT(2) 
PARAMETRIC_REPRESENTATION_CONTEXT() REPRESENTATION_CONTEXT('2D SPACE',''
  ) );
#789 = PCURVE('',#676,#790);
#790 = DEFINITIONAL_REPRESENTATION('',(#791),#795);
#791 = LINE('',#792,#793);
#792 = CARTESIAN_POINT('',(0.,-0.));
#793 = VECTOR('',#794,1.);
#794 = DIRECTION('',(0.,1.));
#795 = ( GEOMETRIC_REPRESENTATION_CONTEXT(2) 
PARAMETRIC_REPRESENTATION_CONTEXT() REPRESENTATION_CONTEXT('2D SPACE',''
  ) );
#796 = ORIENTED_EDGE('',*,*,#659,.F.);
#797 = ORIENTED_EDGE('',*,*,#774,.F.);
#798 = ORIENTED_EDGE('',*,*,#799,.T.);
#799 = EDGE_CURVE('',#775,#775,#800,.T.);
#800 = SURFACE_CURVE('',#801,(#806,#813),.PCURVE_S1.);
#801 = CIRCLE('',#802,0.163625);
#802 = AXIS2_PLACEMENT_3D('',#803,#804,#805);
#803 = CARTESIAN_POINT('',(-1.20675,0.98175,0.621));
#804 = DIRECTION('',(0.,0.,1.));
#805 = DIRECTION('',(1.,0.,0.));
#806 = PCURVE('',#676,#807);
#807 = DEFINITIONAL_REPRESENTATION('',(#808),#812);
#808 = LINE('',#809,#810);
#809 = CARTESIAN_POINT('',(0.,0.));
#810 = VECTOR('',#811,1.);
#811 = DIRECTION('',(1.,0.));
#812 = ( GEOMETRIC_REPRESENTATION_CONTEXT(2) 
PARAMETRIC_REPRESENTATION_CONTEXT() REPRESENTATION_CONTEXT('2D SPACE',''
  ) );
#813 = PCURVE('',#814,#819);
#814 = PLANE('',#815);
#815 = AXIS2_PLACEMENT_3D('',#816,#817,#818);
#816 = CARTESIAN_POINT('',(-1.20675,0.98175,0.621));
#817 = DIRECTION('',(0.,0.,1.));
#818 = DIRECTION('',(1.,0.,0.));
#819 = DEFINITIONAL_REPRESENTATION('',(#820),#824);
#820 = CIRCLE('',#821,0.163625);
#821 = AXIS2_PLACEMENT_2D('',#822,#823);
#822 = CARTESIAN_POINT('',(0.,0.));
#823 = DIRECTION('',(1.,0.));
#824 = ( GEOMETRIC_REPRESENTATION_CONTEXT(2) 
PARAMETRIC_REPRESENTATION_CONTEXT() REPRESENTATION_CONTEXT('2D SPACE',''
  ) );
#825 = ADVANCED_FACE('',(#826),#814,.T.);
#826 = FACE_BOUND('',#827,.F.);
#827 = EDGE_LOOP('',(#828));
#828 = ORIENTED_EDGE('',*,*,#799,.F.);
#829 = ( GEOMETRIC_REPRESENTATION_CONTEXT(3) 
GLOBAL_UNCERTAINTY_ASSIGNED_CONTEXT((#833)) GLOBAL_UNIT_ASSIGNED_CONTEXT
((#830,#831,#832)) REPRESENTATION_CONTEXT('Context #1',
  '3D Context with UNIT and UNCERTAINTY') );
#830 = ( LENGTH_UNIT() NAMED_UNIT(*) SI_UNIT(.MILLI.,.METRE.) );
#831 = ( NAMED_UNIT(*) PLANE_ANGLE_UNIT() SI_UNIT($,.RADIAN.) );
#832 = ( NAMED_UNIT(*) SI_UNIT($,.STERADIAN.) SOLID_ANGLE_UNIT() );
#833 = UNCERTAINTY_MEASURE_WITH_UNIT(LENGTH_MEASURE(1.E-07),#830,
  'distance_accuracy_value','confusion accuracy');
#834 = SHAPE_DEFINITION_REPRESENTATION(#835,#408);
#835 = PRODUCT_DEFINITION_SHAPE('','',#836);
#836 = PRODUCT_DEFINITION('design','',#837,#840);
#837 = PRODUCT_DEFINITION_FORMATION('','',#838);
#838 = PRODUCT('Body','Body','',(#839));
#839 = PRODUCT_CONTEXT('',#2,'mechanical');
#840 = PRODUCT_DEFINITION_CONTEXT('part definition',#2,'design');
#841 = CONTEXT_DEPENDENT_SHAPE_REPRESENTATION(#842,#844);
#842 = ( REPRESENTATION_RELATIONSHIP('','',#408,#10) 
REPRESENTATION_RELATIONSHIP_WITH_TRANSFORMATION(#843) 
SHAPE_REPRESENTATION_RELATIONSHIP() );
#843 = ITEM_DEFINED_TRANSFORMATION('','',#11,#19);
#844 = PRODUCT_DEFINITION_SHAPE('Placement','Placement of an item',#845
  );
#845 = NEXT_ASSEMBLY_USAGE_OCCURRENCE('2','=>[0:1:1:3]','',#5,#836,$);
#846 = PRODUCT_RELATED_PRODUCT_CATEGORY('part',$,(#838));
#847 = MECHANICAL_DESIGN_GEOMETRIC_PRESENTATION_REPRESENTATION('',(#848,
    #858,#867,#876,#885,#894,#903,#912,#921,#930,#939,#948,#957,#966,
    #975,#984,#993,#1002,#1011,#1020,#1029,#1038,#1047,#1056,#1065,#1074
    ,#1083,#1092,#1101,#1110),#390);
#848 = STYLED_ITEM('color',(#849),#30);
#849 = PRESENTATION_STYLE_ASSIGNMENT((#850,#856));
#850 = SURFACE_STYLE_USAGE(.BOTH.,#851);
#851 = SURFACE_SIDE_STYLE('',(#852));
#852 = SURFACE_STYLE_FILL_AREA(#853);
#853 = FILL_AREA_STYLE('',(#854));
#854 = FILL_AREA_STYLE_COLOUR('',#855);
#855 = COLOUR_RGB('',0.73400002718,0.773000001907,0.79699999094);
#856 = CURVE_STYLE('',#857,POSITIVE_LENGTH_MEASURE(0.1),#855);
#857 = DRAUGHTING_PRE_DEFINED_CURVE_FONT('continuous');
#858 = STYLED_ITEM('color',(#859),#42);
#859 = PRESENTATION_STYLE_ASSIGNMENT((#860,#865));
#860 = SURFACE_STYLE_USAGE(.BOTH.,#861);
#861 = SURFACE_SIDE_STYLE('',(#862));
#862 = SURFACE_STYLE_FILL_AREA(#863);
#863 = FILL_AREA_STYLE('',(#864));
#864 = FILL_AREA_STYLE_COLOUR('',#855);
#865 = CURVE_STYLE('',#866,POSITIVE_LENGTH_MEASURE(0.1),#855);
#866 = DRAUGHTING_PRE_DEFINED_CURVE_FONT('continuous');
#867 = STYLED_ITEM('color',(#868),#54);
#868 = PRESENTATION_STYLE_ASSIGNMENT((#869,#874));
#869 = SURFACE_STYLE_USAGE(.BOTH.,#870);
#870 = SURFACE_SIDE_STYLE('',(#871));
#871 = SURFACE_STYLE_FILL_AREA(#872);
#872 = FILL_AREA_STYLE('',(#873));
#873 = FILL_AREA_STYLE_COLOUR('',#855);
#874 = CURVE_STYLE('',#875,POSITIVE_LENGTH_MEASURE(0.1),#855);
#875 = DRAUGHTING_PRE_DEFINED_CURVE_FONT('continuous');
#876 = STYLED_ITEM('color',(#877),#66);
#877 = PRESENTATION_STYLE_ASSIGNMENT((#878,#883));
#878 = SURFACE_STYLE_USAGE(.BOTH.,#879);
#879 = SURFACE_SIDE_STYLE('',(#880));
#880 = SURFACE_STYLE_FILL_AREA(#881);
#881 = FILL_AREA_STYLE('',(#882));
#882 = FILL_AREA_STYLE_COLOUR('',#855);
#883 = CURVE_STYLE('',#884,POSITIVE_LENGTH_MEASURE(0.1),#855);
#884 = DRAUGHTING_PRE_DEFINED_CURVE_FONT('continuous');
#885 = STYLED_ITEM('color',(#886),#78);
#886 = PRESENTATION_STYLE_ASSIGNMENT((#887,#892));
#887 = SURFACE_STYLE_USAGE(.BOTH.,#888);
#888 = SURFACE_SIDE_STYLE('',(#889));
#889 = SURFACE_STYLE_FILL_AREA(#890);
#890 = FILL_AREA_STYLE('',(#891));
#891 = FILL_AREA_STYLE_COLOUR('',#855);
#892 = CURVE_STYLE('',#893,POSITIVE_LENGTH_MEASURE(0.1),#855);
#893 = DRAUGHTING_PRE_DEFINED_CURVE_FONT('continuous');
#894 = STYLED_ITEM('color',(#895),#90);
#895 = PRESENTATION_STYLE_ASSIGNMENT((#896,#901));
#896 = SURFACE_STYLE_USAGE(.BOTH.,#897);
#897 = SURFACE_SIDE_STYLE('',(#898));
#898 = SURFACE_STYLE_FILL_AREA(#899);
#899 = FILL_AREA_STYLE('',(#900));
#900 = FILL_AREA_STYLE_COLOUR('',#855);
#901 = CURVE_STYLE('',#902,POSITIVE_LENGTH_MEASURE(0.1),#855);
#902 = DRAUGHTING_PRE_DEFINED_CURVE_FONT('continuous');
#903 = STYLED_ITEM('color',(#904),#102);
#904 = PRESENTATION_STYLE_ASSIGNMENT((#905,#910));
#905 = SURFACE_STYLE_USAGE(.BOTH.,#906);
#906 = SURFACE_SIDE_STYLE('',(#907));
#907 = SURFACE_STYLE_FILL_AREA(#908);
#908 = FILL_AREA_STYLE('',(#909));
#909 = FILL_AREA_STYLE_COLOUR('',#855);
#910 = CURVE_STYLE('',#911,POSITIVE_LENGTH_MEASURE(0.1),#855);
#911 = DRAUGHTING_PRE_DEFINED_CURVE_FONT('continuous');
#912 = STYLED_ITEM('color',(#913),#114);
#913 = PRESENTATION_STYLE_ASSIGNMENT((#914,#919));
#914 = SURFACE_STYLE_USAGE(.BOTH.,#915);
#915 = SURFACE_SIDE_STYLE('',(#916));
#916 = SURFACE_STYLE_FILL_AREA(#917);
#917 = FILL_AREA_STYLE('',(#918));
#918 = FILL_AREA_STYLE_COLOUR('',#855);
#919 = CURVE_STYLE('',#920,POSITIVE_LENGTH_MEASURE(0.1),#855);
#920 = DRAUGHTING_PRE_DEFINED_CURVE_FONT('continuous');
#921 = STYLED_ITEM('color',(#922),#126);
#922 = PRESENTATION_STYLE_ASSIGNMENT((#923,#928));
#923 = SURFACE_STYLE_USAGE(.BOTH.,#924);
#924 = SURFACE_SIDE_STYLE('',(#925));
#925 = SURFACE_STYLE_FILL_AREA(#926);
#926 = FILL_AREA_STYLE('',(#927));
#927 = FILL_AREA_STYLE_COLOUR('',#855);
#928 = CURVE_STYLE('',#929,POSITIVE_LENGTH_MEASURE(0.1),#855);
#929 = DRAUGHTING_PRE_DEFINED_CURVE_FONT('continuous');
#930 = STYLED_ITEM('color',(#931),#138);
#931 = PRESENTATION_STYLE_ASSIGNMENT((#932,#937));
#932 = SURFACE_STYLE_USAGE(.BOTH.,#933);
#933 = SURFACE_SIDE_STYLE('',(#934));
#934 = SURFACE_STYLE_FILL_AREA(#935);
#935 = FILL_AREA_STYLE('',(#936));
#936 = FILL_AREA_STYLE_COLOUR('',#855);
#937 = CURVE_STYLE('',#938,POSITIVE_LENGTH_MEASURE(0.1),#855);
#938 = DRAUGHTING_PRE_DEFINED_CURVE_FONT('continuous');
#939 = STYLED_ITEM('color',(#940),#150);
#940 = PRESENTATION_STYLE_ASSIGNMENT((#941,#946));
#941 = SURFACE_STYLE_USAGE(.BOTH.,#942);
#942 = SURFACE_SIDE_STYLE('',(#943));
#943 = SURFACE_STYLE_FILL_AREA(#944);
#944 = FILL_AREA_STYLE('',(#945));
#945 = FILL_AREA_STYLE_COLOUR('',#855);
#946 = CURVE_STYLE('',#947,POSITIVE_LENGTH_MEASURE(0.1),#855);
#947 = DRAUGHTING_PRE_DEFINED_CURVE_FONT('continuous');
#948 = STYLED_ITEM('color',(#949),#162);
#949 = PRESENTATION_STYLE_ASSIGNMENT((#950,#955));
#950 = SURFACE_STYLE_USAGE(.BOTH.,#951);
#951 = SURFACE_SIDE_STYLE('',(#952));
#952 = SURFACE_STYLE_FILL_AREA(#953);
#953 = FILL_AREA_STYLE('',(#954));
#954 = FILL_AREA_STYLE_COLOUR('',#855);
#955 = CURVE_STYLE('',#956,POSITIVE_LENGTH_MEASURE(0.1),#855);
#956 = DRAUGHTING_PRE_DEFINED_CURVE_FONT('continuous');
#957 = STYLED_ITEM('color',(#958),#174);
#958 = PRESENTATION_STYLE_ASSIGNMENT((#959,#964));
#959 = SURFACE_STYLE_USAGE(.BOTH.,#960);
#960 = SURFACE_SIDE_STYLE('',(#961));
#961 = SURFACE_STYLE_FILL_AREA(#962);
#962 = FILL_AREA_STYLE('',(#963));
#963 = FILL_AREA_STYLE_COLOUR('',#855);
#964 = CURVE_STYLE('',#965,POSITIVE_LENGTH_MEASURE(0.1),#855);
#965 = DRAUGHTING_PRE_DEFINED_CURVE_FONT('continuous');
#966 = STYLED_ITEM('color',(#967),#186);
#967 = PRESENTATION_STYLE_ASSIGNMENT((#968,#973));
#968 = SURFACE_STYLE_USAGE(.BOTH.,#969);
#969 = SURFACE_SIDE_STYLE('',(#970));
#970 = SURFACE_STYLE_FILL_AREA(#971);
#971 = FILL_AREA_STYLE('',(#972));
#972 = FILL_AREA_STYLE_COLOUR('',#855);
#973 = CURVE_STYLE('',#974,POSITIVE_LENGTH_MEASURE(0.1),#855);
#974 = DRAUGHTING_PRE_DEFINED_CURVE_FONT('continuous');
#975 = STYLED_ITEM('color',(#976),#198);
#976 = PRESENTATION_STYLE_ASSIGNMENT((#977,#982));
#977 = SURFACE_STYLE_USAGE(.BOTH.,#978);
#978 = SURFACE_SIDE_STYLE('',(#979));
#979 = SURFACE_STYLE_FILL_AREA(#980);
#980 = FILL_AREA_STYLE('',(#981));
#981 = FILL_AREA_STYLE_COLOUR('',#855);
#982 = CURVE_STYLE('',#983,POSITIVE_LENGTH_MEASURE(0.1),#855);
#983 = DRAUGHTING_PRE_DEFINED_CURVE_FONT('continuous');
#984 = STYLED_ITEM('color',(#985),#210);
#985 = PRESENTATION_STYLE_ASSIGNMENT((#986,#991));
#986 = SURFACE_STYLE_USAGE(.BOTH.,#987);
#987 = SURFACE_SIDE_STYLE('',(#988));
#988 = SURFACE_STYLE_FILL_AREA(#989);
#989 = FILL_AREA_STYLE('',(#990));
#990 = FILL_AREA_STYLE_COLOUR('',#855);
#991 = CURVE_STYLE('',#992,POSITIVE_LENGTH_MEASURE(0.1),#855);
#992 = DRAUGHTING_PRE_DEFINED_CURVE_FONT('continuous');
#993 = STYLED_ITEM('color',(#994),#222);
#994 = PRESENTATION_STYLE_ASSIGNMENT((#995,#1000));
#995 = SURFACE_STYLE_USAGE(.BOTH.,#996);
#996 = SURFACE_SIDE_STYLE('',(#997));
#997 = SURFACE_STYLE_FILL_AREA(#998);
#998 = FILL_AREA_STYLE('',(#999));
#999 = FILL_AREA_STYLE_COLOUR('',#855);
#1000 = CURVE_STYLE('',#1001,POSITIVE_LENGTH_MEASURE(0.1),#855);
#1001 = DRAUGHTING_PRE_DEFINED_CURVE_FONT('continuous');
#1002 = STYLED_ITEM('color',(#1003),#234);
#1003 = PRESENTATION_STYLE_ASSIGNMENT((#1004,#1009));
#1004 = SURFACE_STYLE_USAGE(.BOTH.,#1005);
#1005 = SURFACE_SIDE_STYLE('',(#1006));
#1006 = SURFACE_STYLE_FILL_AREA(#1007);
#1007 = FILL_AREA_STYLE('',(#1008));
#1008 = FILL_AREA_STYLE_COLOUR('',#855);
#1009 = CURVE_STYLE('',#1010,POSITIVE_LENGTH_MEASURE(0.1),#855);
#1010 = DRAUGHTING_PRE_DEFINED_CURVE_FONT('continuous');
#1011 = STYLED_ITEM('color',(#1012),#246);
#1012 = PRESENTATION_STYLE_ASSIGNMENT((#1013,#1018));
#1013 = SURFACE_STYLE_USAGE(.BOTH.,#1014);
#1014 = SURFACE_SIDE_STYLE('',(#1015));
#1015 = SURFACE_STYLE_FILL_AREA(#1016);
#1016 = FILL_AREA_STYLE('',(#1017));
#1017 = FILL_AREA_STYLE_COLOUR('',#855);
#1018 = CURVE_STYLE('',#1019,POSITIVE_LENGTH_MEASURE(0.1),#855);
#1019 = DRAUGHTING_PRE_DEFINED_CURVE_FONT('continuous');
#1020 = STYLED_ITEM('color',(#1021),#258);
#1021 = PRESENTATION_STYLE_ASSIGNMENT((#1022,#1027));
#1022 = SURFACE_STYLE_USAGE(.BOTH.,#1023);
#1023 = SURFACE_SIDE_STYLE('',(#1024));
#1024 = SURFACE_STYLE_FILL_AREA(#1025);
#1025 = FILL_AREA_STYLE('',(#1026));
#1026 = FILL_AREA_STYLE_COLOUR('',#855);
#1027 = CURVE_STYLE('',#1028,POSITIVE_LENGTH_MEASURE(0.1),#855);
#1028 = DRAUGHTING_PRE_DEFINED_CURVE_FONT('continuous');
#1029 = STYLED_ITEM('color',(#1030),#270);
#1030 = PRESENTATION_STYLE_ASSIGNMENT((#1031,#1036));
#1031 = SURFACE_STYLE_USAGE(.BOTH.,#1032);
#1032 = SURFACE_SIDE_STYLE('',(#1033));
#1033 = SURFACE_STYLE_FILL_AREA(#1034);
#1034 = FILL_AREA_STYLE('',(#1035));
#1035 = FILL_AREA_STYLE_COLOUR('',#855);
#1036 = CURVE_STYLE('',#1037,POSITIVE_LENGTH_MEASURE(0.1),#855);
#1037 = DRAUGHTING_PRE_DEFINED_CURVE_FONT('continuous');
#1038 = STYLED_ITEM('color',(#1039),#282);
#1039 = PRESENTATION_STYLE_ASSIGNMENT((#1040,#1045));
#1040 = SURFACE_STYLE_USAGE(.BOTH.,#1041);
#1041 = SURFACE_SIDE_STYLE('',(#1042));
#1042 = SURFACE_STYLE_FILL_AREA(#1043);
#1043 = FILL_AREA_STYLE('',(#1044));
#1044 = FILL_AREA_STYLE_COLOUR('',#855);
#1045 = CURVE_STYLE('',#1046,POSITIVE_LENGTH_MEASURE(0.1),#855);
#1046 = DRAUGHTING_PRE_DEFINED_CURVE_FONT('continuous');
#1047 = STYLED_ITEM('color',(#1048),#294);
#1048 = PRESENTATION_STYLE_ASSIGNMENT((#1049,#1054));
#1049 = SURFACE_STYLE_USAGE(.BOTH.,#1050);
#1050 = SURFACE_SIDE_STYLE('',(#1051));
#1051 = SURFACE_STYLE_FILL_AREA(#1052);
#1052 = FILL_AREA_STYLE('',(#1053));
#1053 = FILL_AREA_STYLE_COLOUR('',#855);
#1054 = CURVE_STYLE('',#1055,POSITIVE_LENGTH_MEASURE(0.1),#855);
#1055 = DRAUGHTING_PRE_DEFINED_CURVE_FONT('continuous');
#1056 = STYLED_ITEM('color',(#1057),#306);
#1057 = PRESENTATION_STYLE_ASSIGNMENT((#1058,#1063));
#1058 = SURFACE_STYLE_USAGE(.BOTH.,#1059);
#1059 = SURFACE_SIDE_STYLE('',(#1060));
#1060 = SURFACE_STYLE_FILL_AREA(#1061);
#1061 = FILL_AREA_STYLE('',(#1062));
#1062 = FILL_AREA_STYLE_COLOUR('',#855);
#1063 = CURVE_STYLE('',#1064,POSITIVE_LENGTH_MEASURE(0.1),#855);
#1064 = DRAUGHTING_PRE_DEFINED_CURVE_FONT('continuous');
#1065 = STYLED_ITEM('color',(#1066),#318);
#1066 = PRESENTATION_STYLE_ASSIGNMENT((#1067,#1072));
#1067 = SURFACE_STYLE_USAGE(.BOTH.,#1068);
#1068 = SURFACE_SIDE_STYLE('',(#1069));
#1069 = SURFACE_STYLE_FILL_AREA(#1070);
#1070 = FILL_AREA_STYLE('',(#1071));
#1071 = FILL_AREA_STYLE_COLOUR('',#855);
#1072 = CURVE_STYLE('',#1073,POSITIVE_LENGTH_MEASURE(0.1),#855);
#1073 = DRAUGHTING_PRE_DEFINED_CURVE_FONT('continuous');
#1074 = STYLED_ITEM('color',(#1075),#330);
#1075 = PRESENTATION_STYLE_ASSIGNMENT((#1076,#1081));
#1076 = SURFACE_STYLE_USAGE(.BOTH.,#1077);
#1077 = SURFACE_SIDE_STYLE('',(#1078));
#1078 = SURFACE_STYLE_FILL_AREA(#1079);
#1079 = FILL_AREA_STYLE('',(#1080));
#1080 = FILL_AREA_STYLE_COLOUR('',#855);
#1081 = CURVE_STYLE('',#1082,POSITIVE_LENGTH_MEASURE(0.1),#855);
#1082 = DRAUGHTING_PRE_DEFINED_CURVE_FONT('continuous');
#1083 = STYLED_ITEM('color',(#1084),#342);
#1084 = PRESENTATION_STYLE_ASSIGNMENT((#1085,#1090));
#1085 = SURFACE_STYLE_USAGE(.BOTH.,#1086);
#1086 = SURFACE_SIDE_STYLE('',(#1087));
#1087 = SURFACE_STYLE_FILL_AREA(#1088);
#1088 = FILL_AREA_STYLE('',(#1089));
#1089 = FILL_AREA_STYLE_COLOUR('',#855);
#1090 = CURVE_STYLE('',#1091,POSITIVE_LENGTH_MEASURE(0.1),#855);
#1091 = DRAUGHTING_PRE_DEFINED_CURVE_FONT('continuous');
#1092 = STYLED_ITEM('color',(#1093),#354);
#1093 = PRESENTATION_STYLE_ASSIGNMENT((#1094,#1099));
#1094 = SURFACE_STYLE_USAGE(.BOTH.,#1095);
#1095 = SURFACE_SIDE_STYLE('',(#1096));
#1096 = SURFACE_STYLE_FILL_AREA(#1097);
#1097 = FILL_AREA_STYLE('',(#1098));
#1098 = FILL_AREA_STYLE_COLOUR('',#855);
#1099 = CURVE_STYLE('',#1100,POSITIVE_LENGTH_MEASURE(0.1),#855);
#1100 = DRAUGHTING_PRE_DEFINED_CURVE_FONT('continuous');
#1101 = STYLED_ITEM('color',(#1102),#366);
#1102 = PRESENTATION_STYLE_ASSIGNMENT((#1103,#1108));
#1103 = SURFACE_STYLE_USAGE(.BOTH.,#1104);
#1104 = SURFACE_SIDE_STYLE('',(#1105));
#1105 = SURFACE_STYLE_FILL_AREA(#1106);
#1106 = FILL_AREA_STYLE('',(#1107));
#1107 = FILL_AREA_STYLE_COLOUR('',#855);
#1108 = CURVE_STYLE('',#1109,POSITIVE_LENGTH_MEASURE(0.1),#855);
#1109 = DRAUGHTING_PRE_DEFINED_CURVE_FONT('continuous');
#1110 = STYLED_ITEM('color',(#1111),#378);
#1111 = PRESENTATION_STYLE_ASSIGNMENT((#1112,#1117));
#1112 = SURFACE_STYLE_USAGE(.BOTH.,#1113);
#1113 = SURFACE_SIDE_STYLE('',(#1114));
#1114 = SURFACE_STYLE_FILL_AREA(#1115);
#1115 = FILL_AREA_STYLE('',(#1116));
#1116 = FILL_AREA_STYLE_COLOUR('',#855);
#1117 = CURVE_STYLE('',#1118,POSITIVE_LENGTH_MEASURE(0.1),#855);
#1118 = DRAUGHTING_PRE_DEFINED_CURVE_FONT('continuous');
#1119 = MECHANICAL_DESIGN_GEOMETRIC_PRESENTATION_REPRESENTATION('',(
    #1120),#829);
#1120 = STYLED_ITEM('color',(#1121),#409);
#1121 = PRESENTATION_STYLE_ASSIGNMENT((#1122,#1128));
#1122 = SURFACE_STYLE_USAGE(.BOTH.,#1123);
#1123 = SURFACE_SIDE_STYLE('',(#1124));
#1124 = SURFACE_STYLE_FILL_AREA(#1125);
#1125 = FILL_AREA_STYLE('',(#1126));
#1126 = FILL_AREA_STYLE_COLOUR('',#1127);
#1127 = COLOUR_RGB('',0.300000011921,0.300000011921,0.300000011921);
#1128 = CURVE_STYLE('',#1129,POSITIVE_LENGTH_MEASURE(0.1),#1127);
#1129 = DRAUGHTING_PRE_DEFINED_CURVE_FONT('continuous');
ENDSEC;
END-ISO-10303-21;
